<?xml version="1.0" encoding="UTF-8" standalone="no"?><!-- Generator: Gravit.io --><svg xmlns="http://www.w3.org/2000/svg" xmlns:xlink="http://www.w3.org/1999/xlink" style="isolation:isolate" viewBox="0 0 250 250" width="250pt" height="250pt"><defs><clipPath id="_clipPath_MRmBrHeLn9BxG1bsGSXWQRBZqEUfFA1v"><rect width="250" height="250"/></clipPath></defs><g clip-path="url(#_clipPath_MRmBrHeLn9BxG1bsGSXWQRBZqEUfFA1v)"><rect width="250" height="250" style="fill:rgb(0,0,0)" fill-opacity="0"/><defs><filter id="uCe5iZkUc4VH2ol4ta7Wd4dhOM1mnxnO" x="-200%" y="-200%" width="400%" height="400%" filterUnits="objectBoundingBox" color-interpolation-filters="sRGB"><feOffset xmlns="http://www.w3.org/2000/svg" in="SourceGraphic" dx="0" dy="3"/><feGaussianBlur xmlns="http://www.w3.org/2000/svg" stdDeviation="2.146804531419514" result="pf_100_offsetBlur"/><feComposite xmlns="http://www.w3.org/2000/svg" in="SourceGraphic" in2="pf_100_offsetBlur" result="pf_100_inverse" operator="out"/><feFlood xmlns="http://www.w3.org/2000/svg" flood-color="#FFFFFF" flood-opacity="0.5" result="pf_100_color"/><feComposite xmlns="http://www.w3.org/2000/svg" in="pf_100_color" in2="pf_100_inverse" operator="in" result="pf_100_shadow"/><feComposite xmlns="http://www.w3.org/2000/svg" in="pf_100_shadow" in2="SourceGraphic" operator="over" result="_out_zz9kMlpiZ49JzL3njJsYaYH62PtTSMNa"/><feOffset xmlns="http://www.w3.org/2000/svg" in="_out_zz9kMlpiZ49JzL3njJsYaYH62PtTSMNa" dx="0" dy="-3"/><feGaussianBlur xmlns="http://www.w3.org/2000/svg" stdDeviation="2.146804531419514" result="pf_101_offsetBlur"/><feComposite xmlns="http://www.w3.org/2000/svg" in="_out_zz9kMlpiZ49JzL3njJsYaYH62PtTSMNa" in2="pf_101_offsetBlur" result="pf_101_inverse" operator="out"/><feFlood xmlns="http://www.w3.org/2000/svg" flood-color="#000000" flood-opacity="0.5" result="pf_101_color"/><feComposite xmlns="http://www.w3.org/2000/svg" in="pf_101_color" in2="pf_101_inverse" operator="in" result="pf_101_shadow"/><feComposite xmlns="http://www.w3.org/2000/svg" in="pf_101_shadow" in2="_out_zz9kMlpiZ49JzL3njJsYaYH62PtTSMNa" operator="over" result="_out_qnq1BBkGodXst6vTY6DsKmCAeyC7U8ak"/><feMerge><feMergeNode in="_out_qnq1BBkGodXst6vTY6DsKmCAeyC7U8ak"/></feMerge></filter></defs><g filter="url(#uCe5iZkUc4VH2ol4ta7Wd4dhOM1mnxnO)"><path d="M 15 0 L 235 0 C 243.279 0 250 6.721 250 15 L 250 235 C 250 243.279 243.279 250 235 250 L 15 250 C 6.721 250 0 243.279 0 235 L 0 15 C 0 6.721 6.721 0 15 0 Z" style="stroke:none;fill:#243742;stroke-miterlimit:10;"/></g><defs><filter id="0U17fURPIbnQFgcefS8LeUezIeYZ22KG" x="-200%" y="-200%" width="400%" height="400%" filterUnits="objectBoundingBox" color-interpolation-filters="sRGB"><feGaussianBlur xmlns="http://www.w3.org/2000/svg" in="SourceGraphic" stdDeviation="2.146804531419514"/><feOffset xmlns="http://www.w3.org/2000/svg" dx="-5" dy="5" result="pf_100_offsetBlur"/><feFlood xmlns="http://www.w3.org/2000/svg" flood-color="#000000" flood-opacity="0.5"/><feComposite xmlns="http://www.w3.org/2000/svg" in2="pf_100_offsetBlur" operator="in" result="pf_100_dropShadow"/><feBlend xmlns="http://www.w3.org/2000/svg" in="SourceGraphic" in2="pf_100_dropShadow" mode="normal"/></filter></defs><g filter="url(#0U17fURPIbnQFgcefS8LeUezIeYZ22KG)"><path d=" M 135.221 86.672 L 135.221 43.234 L 71.341 43.234 C 67.093 43.234 63.676 46.652 63.676 50.9 L 63.676 199.1 C 63.676 203.348 67.093 206.766 71.341 206.766 L 178.659 206.766 C 182.907 206.766 186.324 203.348 186.324 199.1 L 186.324 94.338 L 142.886 94.338 C 138.67 94.338 135.221 90.888 135.221 86.672 Z  M 159.639 154.18 L 128.842 184.747 C 126.718 186.858 123.288 186.858 121.164 184.747 L 90.368 154.18 C 87.126 150.964 89.4 145.441 93.961 145.441 L 114.779 145.441 L 114.779 119.89 C 114.779 117.066 117.066 114.779 119.89 114.779 L 130.11 114.779 C 132.934 114.779 135.221 117.066 135.221 119.89 L 135.221 145.441 L 156.039 145.441 C 160.6 145.441 162.874 150.964 159.639 154.18 Z  M 184.089 76.771 L 152.82 45.47 C 151.382 44.033 149.434 43.234 147.39 43.234 L 145.441 43.234 L 145.441 84.117 L 186.324 84.117 L 186.324 82.169 C 186.324 80.157 185.526 78.208 184.089 76.771 Z " fill="rgb(255,255,255)"/></g></g></svg>